<svg xmlns="http://www.w3.org/2000/svg" version="1.1" xmlns:xlink="http://www.w3.org/1999/xlink" xmlns:svgjs="http://svgjs.dev/svgjs" width="1500" height="1687" viewBox="0 0 1500 1687"><g transform="matrix(1,0,0,1,0.00044062500001018634,0)"><svg viewBox="0 0 320 360" data-background-color="#000000" preserveAspectRatio="xMidYMid meet" height="1687" width="1500" xmlns="http://www.w3.org/2000/svg" xmlns:xlink="http://www.w3.org/1999/xlink"><g id="tight-bounds" transform="matrix(1,0,0,1,-0.000046999999995023245,0)"><svg viewBox="0 0 320 360" height="360" width="320"><rect width="320.000141" height="360" fill="url(#4e780244-f878-4cd3-bd10-e9127e7aa7f6)" mask="url(#8272797c-b960-4055-9843-1089974acaf2)" data-fill-palette-color="tertiary"></rect><g><svg></svg></g><g><svg viewBox="0 0 320 360" height="360" width="320"><g><path transform="translate(-74.99272,-51.79039) scale(4.65793,4.65793)" d="M20.6 59.9l0.8 1-0.4-1.3c-0.1-0.6-0.8 0.1-0.4 0.3M21.5 59.3c0.3 0.5 0.6 1 0.6 1.5 0 0.7 0.6 1 1.1 1.2-0.7-0.8-1.1-3-1.7-2.7M59.9 16.9c1.7 0 3.3-0.2 5.1 0.2 4.4 1.1 8.1 3.3 10.6 6.4l7 11.2c0.3 2.8 0.9 5.9 0.8 9.3 0.7 0 0.6-1 1.4-1.2-0.8 2-1.2 4.5-1.4 7.4-0.5-1.6 0-4 0.1-5.3-0.7 1.1-1.1 0.3-1.1-0.2 0.1-0.8-0.3-0.7-0.6-1-1.1-1-1.8-2.1-2.6-3.8 0.5-1.3 0.6-3.2-1-4.2-0.5-0.3-1.1-0.8-1.4-1.6-0.4-1.1-1.1-2.4-0.9-4.1 0.1-0.5-1.5 1.1-2.4 0.4-3.9-2.7-7.8-5.8-12.5-8.4-2.5 0-4.3-0.9-5.2-2-0.8-1-0.2-2.3 1-2.4 0.7 0 1.5-0.2 2.1 0.2 0.1-0.4 0.5-0.9 1-0.9M50 14.6l0.2 0.1c1 0.2 1.5 1.6 2.6 1.1 0 0.7 0.1 1.4-0.1 1.9-0.3 0.8-1.2 0.8-1.9 0.8-6.7-0.4-10.6 2.4-14.7 4.8-1.1 0.7-2.3 1.2-3.2 2.1-4.3 4-9 7.7-10.1 15.1l-0.9 8.2c-0.1 0.9-1.1 1.8-0.9 2.9l0.7 4.9c-0.7-0.7-1.1 0.2-0.9 0.6 0.1 0.3 0.5 1.3 1.1 0.4 0.8 1.5 1.6 4.4 2.7 5.7 3.4 4 7.8 7.6 11.4 11.2 0.9-0.2 1.6-0.2 1.8-0.8 0.3 0.6-0.3 1.2-0.8 1.3 1.6 1 3.4 1.9 5.8 2.1 3.1 0.2 6 0.7 8.7 1.4 1.4-0.4 2.8-0.6 4.3-0.7 0.5 0 0.8-0.8 1.4-1l0.1-1c0.6 0.9 0.5-0.3 0.1-0.9 0.7 0.6 0.9 1.1 1.2 1.5 0-0.3 0.8-1.4 0.8-0.1l0.2-1.3c0.3-0.2 0.4 1.1 0.7 0.2 0.3-0.9 0.9-0.2 1.5-0.5-0.2 0.4-0.1 1.2 0.6 0.7l0.8-0.7c0.5 1.2 1.3 0.7 1.7 0.5 4.4-2.8 8.8-6.1 13-9.4l-0.1 1.3 0.5-1.6c0.5 0.5 0.9 0.1 1.1-0.2 0.6-1 1.4-2 2.7-2.9-1.6 4.3-3.5 7.7-5.9 10.5l-1 1.2c0 0.7-0.2 1.6-1 1.7-0.4 0.1-1.2-0.2-1.8 0.4-0.3 0.4 0.7 1.2-0.1 0.6-0.7-0.5-1.4 0-2.2 0.2-0.6 0.2 0.4 0.8 0.6 1.2 0.2 0.4 0.4 0.8 0.3 1.3l-1.1-1.2c-1.3 0.7-2.1 2-3.2 3-0.5 0.4-0.3 1.1-0.3 1.7-0.7 0-1.5-0.2-1.9 0.2-0.3 0.4-0.2 1-0.2 1.6-1-0.1-1.1-1.6-2-1.3-0.9 0.2-1.9 0.3-2.7 0.8 0.6 1.2-1 0.5-0.8 0.7-1.5-0.9-2.8-1.6-4.4-1-3.4-1.1-7.6-0.6-10.7-0.2 0-0.5 0.1-1-0.1-1.1-0.2 0.5-0.8 0.3-0.7 0.3-1.9-1.3-3.8-2.1-5.8-3.2-1.8 0.2-3.5-0.7-4-1.2-1.4-1.3-3-0.6-4.3-0.9-2.8-0.7-3.8-3.6-4.1-5.6-0.2-1-1-1.4-1.3-1.3-1.3-4.2-3.3-8-4.9-11.9-0.4-1-0.3-2-0.3-3.1 0.5 0.2 1 0.1 0.9-0.6-0.5-3.3-1.7-5.8-3-8.2 0.7-3.4 0.8-7.4 2.4-10.4 1.4-2.7 4-4.1 5.8-6.4 0.6-0.8 0.6-1.9 1.2-2.6 2-2 4-4.1 6.2-5.9 1-0.8 2.2 0 3.7-0.3 0.5-1.8 2.5-3.4 4.4-2.9 0.8 0.2 2.4-1.9 2.9-2.1 0.8-0.3 0.4 0.8 0.4 1.5 1.9-1.5 4.5-2.3 6.9-3.2" fill="url(#4e780244-f878-4cd3-bd10-e9127e7aa7f6)" fill-rule="nonzero" stroke="none" stroke-width="1" stroke-linecap="butt" stroke-linejoin="miter" stroke-miterlimit="10" stroke-dasharray="" stroke-dashoffset="0" font-family="none" font-weight="none" font-size="none" text-anchor="none" style="mix-blend-mode: normal" data-fill-palette-color="tertiary"></path></g><g transform="matrix(1,0,0,1,75.93757566578734,90)"><svg viewBox="0 0 168.12484866842533 180" height="180" width="168.12484866842533"><g><svg viewBox="0 0 168.12484866842533 180" height="180" width="168.12484866842533"><g><svg viewBox="0 0 192 205.56152331865584" height="180" width="168.12484866842533"><g transform="matrix(1,0,0,1,0,124.24518496407879)"><svg viewBox="0 0 192 81.31633835457706" height="81.31633835457706" width="192"><g id="textblocktransform"><svg viewBox="0 0 192 81.31633835457706" height="81.31633835457706" width="192" id="textblock"><g><svg viewBox="0 0 192 81.31633835457706" height="81.31633835457706" width="192"><g transform="matrix(1,0,0,1,0,0)"><svg width="192" viewBox="4.76 -35.11 84.27 35.7" height="81.31633835457706" data-palette-color="url(#9beaaca9-0fec-491a-b440-0bfbe4de3b32)"></svg></g></svg></g></svg></g></svg></g><g transform="matrix(1,0,0,1,39.81041019698726,0)"><svg viewBox="0 0 112.37917960602547 112.37917960602549" height="112.37917960602549" width="112.37917960602547"><g><svg xmlns="http://www.w3.org/2000/svg" xmlns:xlink="http://www.w3.org/1999/xlink" version="1.1" x="0" y="0" viewBox="0.5 0.5 46.99999999999999 47" enable-background="new 0 0 48 48" xml:space="preserve" height="112.37917960602549" width="112.37917960602547" class="icon-icon-0" data-fill-palette-color="accent" id="icon-0"></svg></g></svg></g><g></g></svg></g></svg></g></svg></g></svg></g><defs></defs><mask id="690c35de-a335-4a17-8754-3ad2ff233ede"><g id="SvgjsG5443"><svg viewBox="0 0 320 360" height="360" width="320"><g><svg></svg></g><g><svg viewBox="0 0 320 360" height="360" width="320"><g><path transform="translate(-74.99272,-51.79039) scale(4.65793,4.65793)" d="M20.6 59.9l0.8 1-0.4-1.3c-0.1-0.6-0.8 0.1-0.4 0.3M21.5 59.3c0.3 0.5 0.6 1 0.6 1.5 0 0.7 0.6 1 1.1 1.2-0.7-0.8-1.1-3-1.7-2.7M59.9 16.9c1.7 0 3.3-0.2 5.1 0.2 4.4 1.1 8.1 3.3 10.6 6.4l7 11.2c0.3 2.8 0.9 5.9 0.8 9.3 0.7 0 0.6-1 1.4-1.2-0.8 2-1.2 4.5-1.4 7.4-0.5-1.6 0-4 0.1-5.3-0.7 1.1-1.1 0.3-1.1-0.2 0.1-0.8-0.3-0.7-0.6-1-1.1-1-1.8-2.1-2.6-3.8 0.5-1.3 0.6-3.2-1-4.2-0.5-0.3-1.1-0.8-1.4-1.6-0.4-1.1-1.1-2.4-0.9-4.1 0.1-0.5-1.5 1.1-2.4 0.4-3.9-2.7-7.8-5.8-12.5-8.4-2.5 0-4.3-0.9-5.2-2-0.8-1-0.2-2.3 1-2.4 0.7 0 1.5-0.2 2.1 0.2 0.1-0.4 0.5-0.9 1-0.9M50 14.6l0.2 0.1c1 0.2 1.5 1.6 2.6 1.1 0 0.7 0.1 1.4-0.1 1.9-0.3 0.8-1.2 0.8-1.9 0.8-6.7-0.4-10.6 2.4-14.7 4.8-1.1 0.7-2.3 1.2-3.2 2.1-4.3 4-9 7.7-10.1 15.1l-0.9 8.2c-0.1 0.9-1.1 1.8-0.9 2.9l0.7 4.9c-0.7-0.7-1.1 0.2-0.9 0.6 0.1 0.3 0.5 1.3 1.1 0.4 0.8 1.5 1.6 4.4 2.7 5.7 3.4 4 7.8 7.6 11.4 11.2 0.9-0.2 1.6-0.2 1.8-0.8 0.3 0.6-0.3 1.2-0.8 1.3 1.6 1 3.4 1.9 5.8 2.1 3.1 0.2 6 0.7 8.7 1.4 1.4-0.4 2.8-0.6 4.3-0.7 0.5 0 0.8-0.8 1.4-1l0.1-1c0.6 0.9 0.5-0.3 0.1-0.9 0.7 0.6 0.9 1.1 1.2 1.5 0-0.3 0.8-1.4 0.8-0.1l0.2-1.3c0.3-0.2 0.4 1.1 0.7 0.2 0.3-0.9 0.9-0.2 1.5-0.5-0.2 0.4-0.1 1.2 0.6 0.7l0.8-0.7c0.5 1.2 1.3 0.7 1.7 0.5 4.4-2.8 8.8-6.1 13-9.4l-0.1 1.3 0.5-1.6c0.5 0.5 0.9 0.1 1.1-0.2 0.6-1 1.4-2 2.7-2.9-1.6 4.3-3.5 7.7-5.9 10.5l-1 1.2c0 0.7-0.2 1.6-1 1.7-0.4 0.1-1.2-0.2-1.8 0.4-0.3 0.4 0.7 1.2-0.1 0.6-0.7-0.5-1.4 0-2.2 0.2-0.6 0.2 0.4 0.8 0.6 1.2 0.2 0.4 0.4 0.8 0.3 1.3l-1.1-1.2c-1.3 0.7-2.1 2-3.2 3-0.5 0.4-0.3 1.1-0.3 1.7-0.7 0-1.5-0.2-1.9 0.2-0.3 0.4-0.2 1-0.2 1.6-1-0.1-1.1-1.6-2-1.3-0.9 0.2-1.9 0.3-2.7 0.8 0.6 1.2-1 0.5-0.8 0.7-1.5-0.9-2.8-1.6-4.4-1-3.4-1.1-7.6-0.6-10.7-0.2 0-0.5 0.1-1-0.1-1.1-0.2 0.5-0.8 0.3-0.7 0.3-1.9-1.3-3.8-2.1-5.8-3.2-1.8 0.2-3.5-0.7-4-1.2-1.4-1.3-3-0.6-4.3-0.9-2.8-0.7-3.8-3.6-4.1-5.6-0.2-1-1-1.4-1.3-1.3-1.3-4.2-3.3-8-4.9-11.9-0.4-1-0.3-2-0.3-3.1 0.5 0.2 1 0.1 0.9-0.6-0.5-3.3-1.7-5.8-3-8.2 0.7-3.4 0.8-7.4 2.4-10.4 1.4-2.7 4-4.1 5.8-6.4 0.6-0.8 0.6-1.9 1.2-2.6 2-2 4-4.1 6.2-5.9 1-0.8 2.2 0 3.7-0.3 0.5-1.8 2.5-3.4 4.4-2.9 0.8 0.2 2.4-1.9 2.9-2.1 0.8-0.3 0.4 0.8 0.4 1.5 1.9-1.5 4.5-2.3 6.9-3.2" fill="black" fill-rule="nonzero" stroke="none" stroke-width="1" stroke-linecap="butt" stroke-linejoin="miter" stroke-miterlimit="10" stroke-dasharray="" stroke-dashoffset="0" font-family="none" font-weight="none" font-size="none" text-anchor="none" style="mix-blend-mode: normal"></path></g><g transform="matrix(1,0,0,1,75.93757566578734,90)"><svg viewBox="0 0 168.12484866842533 180" height="180" width="168.12484866842533"><g><svg viewBox="0 0 168.12484866842533 180" height="180" width="168.12484866842533"><g><svg viewBox="0 0 192 205.56152331865584" height="180" width="168.12484866842533"><g transform="matrix(1,0,0,1,0,124.24518496407879)"><svg viewBox="0 0 192 81.31633835457706" height="81.31633835457706" width="192"><g id="SvgjsG5442"><svg viewBox="0 0 192 81.31633835457706" height="81.31633835457706" width="192" id="SvgjsSvg5441"><g><svg viewBox="0 0 192 81.31633835457706" height="81.31633835457706" width="192"><g transform="matrix(1,0,0,1,0,0)"><svg width="192" viewBox="4.76 -35.11 84.27 35.7" height="81.31633835457706" data-palette-color="url(#9beaaca9-0fec-491a-b440-0bfbe4de3b32)"><path d="M4.76 0L4.76-35.11 9.35-35.11 9.35-3.76 23.73-3.76 23.73 0 4.76 0ZM47.31-4.71L48.53-1.42Q45.82-0.34 43.44 0.12 41.06 0.59 39.18 0.59L39.18 0.59Q36.3 0.59 34.15-0.33 32-1.25 30.58-2.91 29.15-4.57 28.43-6.87 27.71-9.18 27.71-11.96L27.71-11.96Q27.71-13.67 27.95-15.38 28.2-17.09 28.73-18.64 29.27-20.19 30.14-21.53 31-22.88 32.25-23.85 33.49-24.83 35.15-25.39 36.81-25.95 38.94-25.95L38.94-25.95Q44.38-25.95 47.14-22.55 49.9-19.14 49.9-12.79L49.9-12.79 49.9-11.45 32.03-11.45Q32.03-9.4 32.47-7.82 32.91-6.25 33.82-5.16 34.74-4.08 36.14-3.52 37.55-2.95 39.48-2.95L39.48-2.95Q40.55-2.95 41.61-3.11 42.67-3.27 43.67-3.53 44.68-3.78 45.59-4.1 46.51-4.42 47.31-4.71L47.31-4.71ZM32.15-14.82L45.68-14.82Q45.48-18.77 43.78-20.59 42.09-22.41 38.94-22.41L38.94-22.41Q35.79-22.41 34.14-20.59 32.49-18.77 32.15-14.82L32.15-14.82ZM77.44-0.44L77.44-0.44 73.38 0.46Q72.92-1 72.72-2.37L72.72-2.37Q72.63-3 72.48-4.96L72.48-4.96 71.97-4.96Q70.62-2.49 68.65-1.03L68.65-1.03Q66.47 0.59 64.06 0.59L64.06 0.59Q60.42 0.59 58.52-1.17L58.52-1.17Q56.88-2.66 56.25-5.74L56.25-5.74Q55.83-7.84 55.83-11.99L55.83-11.99 55.83-25.39 60.03-25.39 60.03-10.82Q60.03-7.18 60.74-5.62L60.74-5.62Q61.79-3.3 64.96-3.3L64.96-3.3Q67.21-3.3 69.36-5.44L69.36-5.44Q70.8-6.88 72.43-9.67L72.43-9.67 72.43-25.39 76.63-25.39 76.63-9.72Q76.63-6.47 76.8-4.08L76.8-4.08Q76.9-2.59 77.44-0.44ZM88.22-35.11L88.22-9.86Q88.22-7.86 88.27-6.51 88.32-5.15 88.4-4.13L88.4-4.13Q88.47-3.1 88.63-2.27 88.79-1.44 89.03-0.44L89.03-0.44Q88.01-0.17 86.98 0.06 85.95 0.29 84.93 0.46L84.93 0.46Q84.44-1.12 84.23-2.44 84.03-3.76 84.03-5.03L84.03-5.03 84.03-35.11 88.22-35.11Z" opacity="1" transform="matrix(1,0,0,1,0,0)" fill="white" class="wordmark-text-0" id="SvgjsPath5440"></path></svg></g></svg></g></svg></g></svg></g><g transform="matrix(1,0,0,1,39.81041019698726,0)"><svg viewBox="0 0 112.37917960602547 112.37917960602549" height="112.37917960602549" width="112.37917960602547"><g><svg xmlns="http://www.w3.org/2000/svg" xmlns:xlink="http://www.w3.org/1999/xlink" version="1.1" x="0" y="0" viewBox="0.5 0.5 46.99999999999999 47" enable-background="new 0 0 48 48" xml:space="preserve" height="112.37917960602549" width="112.37917960602547" class="icon-icon-0" data-fill-palette-color="accent" id="SvgjsSvg5439"><g fill="black"><path fill="black" d="M43.2 47.5H4.8c-2.4 0-4.3-1.9-4.3-4.3V4.8c0-2.4 1.9-4.3 4.3-4.3h38.4c2.4 0 4.3 1.9 4.3 4.3v38.4C47.5 45.6 45.6 47.5 43.2 47.5zM4.8 4.4c-0.2 0-0.4 0.2-0.4 0.4v38.4c0 0.2 0.2 0.4 0.4 0.4h38.4c0.2 0 0.4-0.2 0.4-0.4V4.8c0-0.2-0.2-0.4-0.4-0.4H4.8z"></path><g fill="black"><g fill="black"><path fill="black" d="M16.3 31.9c-0.5 0-1-0.2-1.4-0.6L9 25.4c-0.8-0.8-0.8-2 0-2.8l5.9-5.9c0.8-0.8 2-0.8 2.8 0 0.8 0.8 0.8 2 0 2.8L13.2 24l4.5 4.5c0.8 0.8 0.8 2 0 2.8C17.3 31.7 16.8 31.9 16.3 31.9z"></path><path fill="black" d="M31.7 31.9c-0.5 0-1-0.2-1.4-0.6-0.8-0.8-0.8-2 0-2.8l4.5-4.5-4.5-4.5c-0.8-0.8-0.8-2 0-2.8 0.8-0.8 2-0.8 2.8 0l5.9 5.9c0.4 0.4 0.6 0.9 0.6 1.4s-0.2 1-0.6 1.4l-5.9 5.9C32.7 31.7 32.2 31.9 31.7 31.9z"></path></g><path fill="black" d="M20 35c-0.3 0-0.5-0.1-0.8-0.2-1-0.4-1.4-1.6-1-2.6l8-18.2c0.4-1 1.6-1.4 2.6-1 1 0.4 1.4 1.6 1 2.6l-8 18.2C21.5 34.6 20.7 35 20 35z"></path></g></g></svg></g></svg></g><g></g></svg></g></svg></g></svg></g></svg></g><defs><mask></mask></defs></svg><rect width="320" height="360" fill="black" stroke="none" visibility="hidden"></rect></g></mask><linearGradient x1="0" x2="1" y1="0.5" y2="0.5" id="9beaaca9-0fec-491a-b440-0bfbe4de3b32"><stop stop-color="#f00b51" offset="0"></stop><stop stop-color="#730062" offset="1"></stop></linearGradient><rect width="320.000047" height="360" fill="url(#9beaaca9-0fec-491a-b440-0bfbe4de3b32)" mask="url(#690c35de-a335-4a17-8754-3ad2ff233ede)" data-fill-palette-color="primary"></rect><mask id="f52cfbac-a015-449a-95a3-52181210acfe"><g id="SvgjsG5462"><svg viewBox="0 0 320 360" height="360" width="320"><g><svg></svg></g><g><svg viewBox="0 0 320 360" height="360" width="320"><g><path transform="translate(-74.99272,-51.79039) scale(4.65793,4.65793)" d="M20.6 59.9l0.8 1-0.4-1.3c-0.1-0.6-0.8 0.1-0.4 0.3M21.5 59.3c0.3 0.5 0.6 1 0.6 1.5 0 0.7 0.6 1 1.1 1.2-0.7-0.8-1.1-3-1.7-2.7M59.9 16.9c1.7 0 3.3-0.2 5.1 0.2 4.4 1.1 8.1 3.3 10.6 6.4l7 11.2c0.3 2.8 0.9 5.9 0.8 9.3 0.7 0 0.6-1 1.4-1.2-0.8 2-1.2 4.5-1.4 7.4-0.5-1.6 0-4 0.1-5.3-0.7 1.1-1.1 0.3-1.1-0.2 0.1-0.8-0.3-0.7-0.6-1-1.1-1-1.8-2.1-2.6-3.8 0.5-1.3 0.6-3.2-1-4.2-0.5-0.3-1.1-0.8-1.4-1.6-0.4-1.1-1.1-2.4-0.9-4.1 0.1-0.5-1.5 1.1-2.4 0.4-3.9-2.7-7.8-5.8-12.5-8.4-2.5 0-4.3-0.9-5.2-2-0.8-1-0.2-2.3 1-2.4 0.7 0 1.5-0.2 2.1 0.2 0.1-0.4 0.5-0.9 1-0.9M50 14.6l0.2 0.1c1 0.2 1.5 1.6 2.6 1.1 0 0.7 0.1 1.4-0.1 1.9-0.3 0.8-1.2 0.8-1.9 0.8-6.7-0.4-10.6 2.4-14.7 4.8-1.1 0.7-2.3 1.2-3.2 2.1-4.3 4-9 7.7-10.1 15.1l-0.9 8.2c-0.1 0.9-1.1 1.8-0.9 2.9l0.7 4.9c-0.7-0.7-1.1 0.2-0.9 0.6 0.1 0.3 0.5 1.3 1.1 0.4 0.8 1.5 1.6 4.4 2.7 5.7 3.4 4 7.8 7.6 11.4 11.2 0.9-0.2 1.6-0.2 1.8-0.8 0.3 0.6-0.3 1.2-0.8 1.3 1.6 1 3.4 1.9 5.8 2.1 3.1 0.2 6 0.7 8.7 1.4 1.4-0.4 2.8-0.6 4.3-0.7 0.5 0 0.8-0.8 1.4-1l0.1-1c0.6 0.9 0.5-0.3 0.1-0.9 0.7 0.6 0.9 1.1 1.2 1.5 0-0.3 0.8-1.4 0.8-0.1l0.2-1.3c0.3-0.2 0.4 1.1 0.7 0.2 0.3-0.9 0.9-0.2 1.5-0.5-0.2 0.4-0.1 1.2 0.6 0.7l0.8-0.7c0.5 1.2 1.3 0.7 1.7 0.5 4.4-2.8 8.8-6.1 13-9.4l-0.1 1.3 0.5-1.6c0.5 0.5 0.9 0.1 1.1-0.2 0.6-1 1.4-2 2.7-2.9-1.6 4.3-3.5 7.7-5.9 10.5l-1 1.2c0 0.7-0.2 1.6-1 1.7-0.4 0.1-1.2-0.2-1.8 0.4-0.3 0.4 0.7 1.2-0.1 0.6-0.7-0.5-1.4 0-2.2 0.2-0.6 0.2 0.4 0.8 0.6 1.2 0.2 0.4 0.4 0.8 0.3 1.3l-1.1-1.2c-1.3 0.7-2.1 2-3.2 3-0.5 0.4-0.3 1.1-0.3 1.7-0.7 0-1.5-0.2-1.9 0.2-0.3 0.4-0.2 1-0.2 1.6-1-0.1-1.1-1.6-2-1.3-0.9 0.2-1.9 0.3-2.7 0.8 0.6 1.2-1 0.5-0.8 0.7-1.5-0.9-2.8-1.6-4.4-1-3.4-1.1-7.6-0.6-10.7-0.2 0-0.5 0.1-1-0.1-1.1-0.2 0.5-0.8 0.3-0.7 0.3-1.9-1.3-3.8-2.1-5.8-3.2-1.8 0.2-3.5-0.7-4-1.2-1.4-1.3-3-0.6-4.3-0.9-2.8-0.7-3.8-3.6-4.1-5.6-0.2-1-1-1.4-1.3-1.3-1.3-4.2-3.3-8-4.9-11.9-0.4-1-0.3-2-0.3-3.1 0.5 0.2 1 0.1 0.9-0.6-0.5-3.3-1.7-5.8-3-8.2 0.7-3.4 0.8-7.4 2.4-10.4 1.4-2.7 4-4.1 5.8-6.4 0.6-0.8 0.6-1.9 1.2-2.6 2-2 4-4.1 6.2-5.9 1-0.8 2.2 0 3.7-0.3 0.5-1.8 2.5-3.4 4.4-2.9 0.8 0.2 2.4-1.9 2.9-2.1 0.8-0.3 0.4 0.8 0.4 1.5 1.9-1.5 4.5-2.3 6.9-3.2" fill="black" fill-rule="nonzero" stroke="none" stroke-width="1" stroke-linecap="butt" stroke-linejoin="miter" stroke-miterlimit="10" stroke-dasharray="" stroke-dashoffset="0" font-family="none" font-weight="none" font-size="none" text-anchor="none" style="mix-blend-mode: normal"></path></g><g transform="matrix(1,0,0,1,75.93757566578734,90)"><svg viewBox="0 0 168.12484866842533 180" height="180" width="168.12484866842533"><g><svg viewBox="0 0 168.12484866842533 180" height="180" width="168.12484866842533"><g><svg viewBox="0 0 192 205.56152331865584" height="180" width="168.12484866842533"><g transform="matrix(1,0,0,1,0,124.24518496407879)"><svg viewBox="0 0 192 81.31633835457706" height="81.31633835457706" width="192"><g id="SvgjsG5461"><svg viewBox="0 0 192 81.31633835457706" height="81.31633835457706" width="192" id="SvgjsSvg5460"><g><svg viewBox="0 0 192 81.31633835457706" height="81.31633835457706" width="192"><g transform="matrix(1,0,0,1,0,0)"><svg width="192" viewBox="4.76 -35.11 84.27 35.7" height="81.31633835457706" data-palette-color="url(#9beaaca9-0fec-491a-b440-0bfbe4de3b32)"></svg></g></svg></g></svg></g></svg></g><g transform="matrix(1,0,0,1,39.81041019698726,0)"><svg viewBox="0 0 112.37917960602547 112.37917960602549" height="112.37917960602549" width="112.37917960602547"><g><svg xmlns="http://www.w3.org/2000/svg" xmlns:xlink="http://www.w3.org/1999/xlink" version="1.1" x="0" y="0" viewBox="0.5 0.5 46.99999999999999 47" enable-background="new 0 0 48 48" xml:space="preserve" height="112.37917960602549" width="112.37917960602547" class="icon-icon-0" data-fill-palette-color="accent" id="SvgjsSvg5459"><g fill="white"><path fill="white" d="M43.2 47.5H4.8c-2.4 0-4.3-1.9-4.3-4.3V4.8c0-2.4 1.9-4.3 4.3-4.3h38.4c2.4 0 4.3 1.9 4.3 4.3v38.4C47.5 45.6 45.6 47.5 43.2 47.5zM4.8 4.4c-0.2 0-0.4 0.2-0.4 0.4v38.4c0 0.2 0.2 0.4 0.4 0.4h38.4c0.2 0 0.4-0.2 0.4-0.4V4.8c0-0.2-0.2-0.4-0.4-0.4H4.8z"></path><g fill="white"><g fill="white"><path fill="white" d="M16.3 31.9c-0.5 0-1-0.2-1.4-0.6L9 25.4c-0.8-0.8-0.8-2 0-2.8l5.9-5.9c0.8-0.8 2-0.8 2.8 0 0.8 0.8 0.8 2 0 2.8L13.2 24l4.5 4.5c0.8 0.8 0.8 2 0 2.8C17.3 31.7 16.8 31.9 16.3 31.9z"></path><path fill="white" d="M31.7 31.9c-0.5 0-1-0.2-1.4-0.6-0.8-0.8-0.8-2 0-2.8l4.5-4.5-4.5-4.5c-0.8-0.8-0.8-2 0-2.8 0.8-0.8 2-0.8 2.8 0l5.9 5.9c0.4 0.4 0.6 0.9 0.6 1.4s-0.2 1-0.6 1.4l-5.9 5.9C32.7 31.7 32.2 31.9 31.7 31.9z"></path></g><path fill="white" d="M20 35c-0.3 0-0.5-0.1-0.8-0.2-1-0.4-1.4-1.6-1-2.6l8-18.2c0.4-1 1.6-1.4 2.6-1 1 0.4 1.4 1.6 1 2.6l-8 18.2C21.5 34.6 20.7 35 20 35z"></path></g></g></svg></g></svg></g><g></g></svg></g></svg></g></svg></g></svg></g><defs><mask></mask></defs><mask><g id="SvgjsG5458"><svg viewBox="0 0 320 360" height="360" width="320"><g><svg></svg></g><g><svg viewBox="0 0 320 360" height="360" width="320"><g><path transform="translate(-74.99272,-51.79039) scale(4.65793,4.65793)" d="M20.6 59.9l0.8 1-0.4-1.3c-0.1-0.6-0.8 0.1-0.4 0.3M21.5 59.3c0.3 0.5 0.6 1 0.6 1.5 0 0.7 0.6 1 1.1 1.2-0.7-0.8-1.1-3-1.7-2.7M59.9 16.9c1.7 0 3.3-0.2 5.1 0.2 4.4 1.1 8.1 3.3 10.6 6.4l7 11.2c0.3 2.8 0.9 5.9 0.8 9.3 0.7 0 0.6-1 1.4-1.2-0.8 2-1.2 4.5-1.4 7.4-0.5-1.6 0-4 0.1-5.3-0.7 1.1-1.1 0.3-1.1-0.2 0.1-0.8-0.3-0.7-0.6-1-1.1-1-1.8-2.1-2.6-3.8 0.5-1.3 0.6-3.2-1-4.2-0.5-0.3-1.1-0.8-1.4-1.6-0.4-1.1-1.1-2.4-0.9-4.1 0.1-0.5-1.5 1.1-2.4 0.4-3.9-2.7-7.8-5.8-12.5-8.4-2.5 0-4.3-0.9-5.2-2-0.8-1-0.2-2.3 1-2.4 0.7 0 1.5-0.2 2.1 0.2 0.1-0.4 0.5-0.9 1-0.9M50 14.6l0.2 0.1c1 0.2 1.5 1.6 2.6 1.1 0 0.7 0.1 1.4-0.1 1.9-0.3 0.8-1.2 0.8-1.9 0.8-6.7-0.4-10.6 2.4-14.7 4.8-1.1 0.7-2.3 1.2-3.2 2.1-4.3 4-9 7.7-10.1 15.1l-0.9 8.2c-0.1 0.9-1.1 1.8-0.9 2.9l0.7 4.9c-0.7-0.7-1.1 0.2-0.9 0.6 0.1 0.3 0.5 1.3 1.1 0.4 0.8 1.5 1.6 4.4 2.7 5.7 3.4 4 7.8 7.6 11.4 11.2 0.9-0.2 1.6-0.2 1.8-0.8 0.3 0.6-0.3 1.2-0.8 1.3 1.6 1 3.4 1.9 5.8 2.1 3.1 0.2 6 0.7 8.7 1.4 1.4-0.4 2.8-0.6 4.3-0.7 0.5 0 0.8-0.8 1.4-1l0.1-1c0.6 0.9 0.5-0.3 0.1-0.9 0.7 0.6 0.9 1.1 1.2 1.5 0-0.3 0.8-1.4 0.8-0.1l0.2-1.3c0.3-0.2 0.4 1.1 0.7 0.2 0.3-0.9 0.9-0.2 1.5-0.5-0.2 0.4-0.1 1.2 0.6 0.7l0.8-0.7c0.5 1.2 1.3 0.7 1.7 0.5 4.4-2.8 8.8-6.1 13-9.4l-0.1 1.3 0.5-1.6c0.5 0.5 0.9 0.1 1.1-0.2 0.6-1 1.4-2 2.7-2.9-1.6 4.3-3.5 7.7-5.9 10.5l-1 1.2c0 0.7-0.2 1.6-1 1.7-0.4 0.1-1.2-0.2-1.8 0.4-0.3 0.4 0.7 1.2-0.1 0.6-0.7-0.5-1.4 0-2.2 0.2-0.6 0.2 0.4 0.8 0.6 1.2 0.2 0.4 0.4 0.8 0.3 1.3l-1.1-1.2c-1.3 0.7-2.1 2-3.2 3-0.5 0.4-0.3 1.1-0.3 1.7-0.7 0-1.5-0.2-1.9 0.2-0.3 0.4-0.2 1-0.2 1.6-1-0.1-1.1-1.6-2-1.3-0.9 0.2-1.9 0.3-2.7 0.8 0.6 1.2-1 0.5-0.8 0.7-1.5-0.9-2.8-1.6-4.4-1-3.4-1.1-7.6-0.6-10.7-0.2 0-0.5 0.1-1-0.1-1.1-0.2 0.5-0.8 0.3-0.7 0.3-1.9-1.3-3.8-2.1-5.8-3.2-1.8 0.2-3.5-0.7-4-1.2-1.4-1.3-3-0.6-4.3-0.9-2.8-0.7-3.8-3.6-4.1-5.6-0.2-1-1-1.4-1.3-1.3-1.3-4.2-3.3-8-4.9-11.9-0.4-1-0.3-2-0.3-3.1 0.5 0.2 1 0.1 0.9-0.6-0.5-3.3-1.7-5.8-3-8.2 0.7-3.4 0.8-7.4 2.4-10.4 1.4-2.7 4-4.1 5.8-6.4 0.6-0.8 0.6-1.9 1.2-2.6 2-2 4-4.1 6.2-5.9 1-0.8 2.2 0 3.7-0.3 0.5-1.8 2.5-3.4 4.4-2.9 0.8 0.2 2.4-1.9 2.9-2.1 0.8-0.3 0.4 0.8 0.4 1.5 1.9-1.5 4.5-2.3 6.9-3.2" fill="black" fill-rule="nonzero" stroke="none" stroke-width="1" stroke-linecap="butt" stroke-linejoin="miter" stroke-miterlimit="10" stroke-dasharray="" stroke-dashoffset="0" font-family="none" font-weight="none" font-size="none" text-anchor="none" style="mix-blend-mode: normal"></path></g><g transform="matrix(1,0,0,1,75.93757566578734,90)"><svg viewBox="0 0 168.12484866842533 180" height="180" width="168.12484866842533"><g><svg viewBox="0 0 168.12484866842533 180" height="180" width="168.12484866842533"><g><svg viewBox="0 0 192 205.56152331865584" height="180" width="168.12484866842533"><g transform="matrix(1,0,0,1,0,124.24518496407879)"><svg viewBox="0 0 192 81.31633835457706" height="81.31633835457706" width="192"><g id="SvgjsG5457"><svg viewBox="0 0 192 81.31633835457706" height="81.31633835457706" width="192" id="SvgjsSvg5456"><g><svg viewBox="0 0 192 81.31633835457706" height="81.31633835457706" width="192"><g transform="matrix(1,0,0,1,0,0)"><svg width="192" viewBox="4.76 -35.11 84.27 35.7" height="81.31633835457706" data-palette-color="url(#9beaaca9-0fec-491a-b440-0bfbe4de3b32)"><path d="M4.76 0L4.76-35.11 9.35-35.11 9.35-3.76 23.73-3.76 23.73 0 4.76 0ZM47.31-4.71L48.53-1.42Q45.82-0.34 43.44 0.12 41.06 0.59 39.18 0.59L39.18 0.59Q36.3 0.59 34.15-0.33 32-1.25 30.58-2.91 29.15-4.57 28.43-6.87 27.71-9.18 27.71-11.96L27.71-11.96Q27.71-13.67 27.95-15.38 28.2-17.09 28.73-18.64 29.27-20.19 30.14-21.53 31-22.88 32.25-23.85 33.49-24.83 35.15-25.39 36.81-25.95 38.94-25.95L38.94-25.95Q44.38-25.95 47.14-22.55 49.9-19.14 49.9-12.79L49.9-12.79 49.9-11.45 32.03-11.45Q32.03-9.4 32.47-7.82 32.91-6.25 33.82-5.16 34.74-4.08 36.14-3.52 37.55-2.95 39.48-2.95L39.48-2.95Q40.55-2.95 41.61-3.11 42.67-3.27 43.67-3.53 44.68-3.78 45.59-4.1 46.51-4.42 47.31-4.71L47.31-4.71ZM32.15-14.82L45.68-14.82Q45.48-18.77 43.78-20.59 42.09-22.41 38.94-22.41L38.94-22.41Q35.79-22.41 34.14-20.59 32.49-18.77 32.15-14.82L32.15-14.82ZM77.44-0.44L77.44-0.44 73.38 0.46Q72.92-1 72.72-2.37L72.72-2.37Q72.63-3 72.48-4.96L72.48-4.96 71.97-4.96Q70.62-2.49 68.65-1.03L68.65-1.03Q66.47 0.59 64.06 0.59L64.06 0.59Q60.42 0.59 58.52-1.17L58.52-1.17Q56.88-2.66 56.25-5.74L56.25-5.74Q55.83-7.84 55.83-11.99L55.83-11.99 55.83-25.39 60.03-25.39 60.03-10.82Q60.03-7.18 60.74-5.62L60.74-5.62Q61.79-3.3 64.96-3.3L64.96-3.3Q67.21-3.3 69.36-5.44L69.36-5.44Q70.8-6.88 72.43-9.67L72.43-9.67 72.43-25.39 76.63-25.39 76.63-9.72Q76.63-6.47 76.8-4.08L76.8-4.08Q76.9-2.59 77.44-0.44ZM88.22-35.11L88.22-9.86Q88.22-7.86 88.27-6.51 88.32-5.15 88.4-4.13L88.4-4.13Q88.47-3.1 88.63-2.27 88.79-1.44 89.03-0.44L89.03-0.44Q88.01-0.17 86.98 0.06 85.95 0.29 84.93 0.46L84.93 0.46Q84.44-1.12 84.23-2.44 84.03-3.76 84.03-5.03L84.03-5.03 84.03-35.11 88.22-35.11Z" opacity="1" transform="matrix(1,0,0,1,0,0)" fill="black" class="wordmark-text-0" id="SvgjsPath5455"></path></svg></g></svg></g></svg></g></svg></g><g transform="matrix(1,0,0,1,39.81041019698726,0)"><svg viewBox="0 0 112.37917960602547 112.37917960602549" height="112.37917960602549" width="112.37917960602547"><g><svg xmlns="http://www.w3.org/2000/svg" xmlns:xlink="http://www.w3.org/1999/xlink" version="1.1" x="0" y="0" viewBox="0.5 0.5 46.99999999999999 47" enable-background="new 0 0 48 48" xml:space="preserve" height="112.37917960602549" width="112.37917960602547" class="icon-icon-0" data-fill-palette-color="accent" id="SvgjsSvg5454"><g fill="black"><path fill="black" d="M43.2 47.5H4.8c-2.4 0-4.3-1.9-4.3-4.3V4.8c0-2.4 1.9-4.3 4.3-4.3h38.4c2.4 0 4.3 1.9 4.3 4.3v38.4C47.5 45.6 45.6 47.5 43.2 47.5zM4.8 4.4c-0.2 0-0.4 0.2-0.4 0.4v38.4c0 0.2 0.2 0.4 0.4 0.4h38.4c0.2 0 0.4-0.2 0.4-0.4V4.8c0-0.2-0.2-0.4-0.4-0.4H4.8z"></path><g fill="black"><g fill="black"><path fill="black" d="M16.3 31.9c-0.5 0-1-0.2-1.4-0.6L9 25.4c-0.8-0.8-0.8-2 0-2.8l5.9-5.9c0.8-0.8 2-0.8 2.8 0 0.8 0.8 0.8 2 0 2.8L13.2 24l4.5 4.5c0.8 0.8 0.8 2 0 2.8C17.3 31.7 16.8 31.9 16.3 31.9z"></path><path fill="black" d="M31.7 31.9c-0.5 0-1-0.2-1.4-0.6-0.8-0.8-0.8-2 0-2.8l4.5-4.5-4.5-4.5c-0.8-0.8-0.8-2 0-2.8 0.8-0.8 2-0.8 2.8 0l5.9 5.9c0.4 0.4 0.6 0.9 0.6 1.4s-0.2 1-0.6 1.4l-5.9 5.9C32.7 31.7 32.2 31.9 31.7 31.9z"></path></g><path fill="black" d="M20 35c-0.3 0-0.5-0.1-0.8-0.2-1-0.4-1.4-1.6-1-2.6l8-18.2c0.4-1 1.6-1.4 2.6-1 1 0.4 1.4 1.6 1 2.6l-8 18.2C21.5 34.6 20.7 35 20 35z"></path></g></g></svg></g></svg></g><g></g></svg></g></svg></g></svg></g></svg></g><defs><mask></mask></defs></svg><rect width="320" height="360" fill="black" stroke="none" visibility="hidden"></rect></g></mask></svg><rect width="320" height="360" fill="black" stroke="none" visibility="hidden"></rect></g></mask><linearGradient x1="0" x2="1" y1="0.5" y2="0.5" id="06f727dc-96e1-413d-8b6e-01cc5b35386c"><stop stop-color="#f00b51" offset="0"></stop><stop stop-color="#730062" offset="1"></stop></linearGradient><rect width="320.000094" height="360" fill="url(#06f727dc-96e1-413d-8b6e-01cc5b35386c)" mask="url(#f52cfbac-a015-449a-95a3-52181210acfe)" data-fill-palette-color="accent"></rect><mask id="8272797c-b960-4055-9843-1089974acaf2"><g id="SvgjsG5480"><svg viewBox="0 0 320 360" height="360" width="320"><g><svg></svg></g><g><svg viewBox="0 0 320 360" height="360" width="320"><g><path transform="translate(-74.99272,-51.79039) scale(4.65793,4.65793)" d="M20.6 59.9l0.8 1-0.4-1.3c-0.1-0.6-0.8 0.1-0.4 0.3M21.5 59.3c0.3 0.5 0.6 1 0.6 1.5 0 0.7 0.6 1 1.1 1.2-0.7-0.8-1.1-3-1.7-2.7M59.9 16.9c1.7 0 3.3-0.2 5.1 0.2 4.4 1.1 8.1 3.3 10.6 6.4l7 11.2c0.3 2.8 0.9 5.9 0.8 9.3 0.7 0 0.6-1 1.4-1.2-0.8 2-1.2 4.5-1.4 7.4-0.5-1.6 0-4 0.1-5.3-0.7 1.1-1.1 0.3-1.1-0.2 0.1-0.8-0.3-0.7-0.6-1-1.1-1-1.8-2.1-2.6-3.8 0.5-1.3 0.6-3.2-1-4.2-0.5-0.3-1.1-0.8-1.4-1.6-0.4-1.1-1.1-2.4-0.9-4.1 0.1-0.5-1.5 1.1-2.4 0.4-3.9-2.7-7.8-5.8-12.5-8.4-2.5 0-4.3-0.9-5.2-2-0.8-1-0.2-2.3 1-2.4 0.7 0 1.5-0.2 2.1 0.2 0.1-0.4 0.5-0.9 1-0.9M50 14.6l0.2 0.1c1 0.2 1.5 1.6 2.6 1.1 0 0.7 0.1 1.4-0.1 1.9-0.3 0.8-1.2 0.8-1.9 0.8-6.7-0.4-10.6 2.4-14.7 4.8-1.1 0.7-2.3 1.2-3.2 2.1-4.3 4-9 7.7-10.1 15.1l-0.9 8.2c-0.1 0.9-1.1 1.8-0.9 2.9l0.7 4.9c-0.7-0.7-1.1 0.2-0.9 0.6 0.1 0.3 0.5 1.3 1.1 0.4 0.8 1.5 1.6 4.4 2.7 5.7 3.4 4 7.8 7.6 11.4 11.2 0.9-0.2 1.6-0.2 1.8-0.8 0.3 0.6-0.3 1.2-0.8 1.3 1.6 1 3.4 1.9 5.8 2.1 3.1 0.2 6 0.7 8.7 1.4 1.4-0.4 2.8-0.6 4.3-0.7 0.5 0 0.8-0.8 1.4-1l0.1-1c0.6 0.9 0.5-0.3 0.1-0.9 0.7 0.6 0.9 1.1 1.2 1.5 0-0.3 0.8-1.4 0.8-0.1l0.2-1.3c0.3-0.2 0.4 1.1 0.7 0.2 0.3-0.9 0.9-0.2 1.5-0.5-0.2 0.4-0.1 1.2 0.6 0.7l0.8-0.7c0.5 1.2 1.3 0.7 1.7 0.5 4.4-2.8 8.8-6.1 13-9.4l-0.1 1.3 0.5-1.6c0.5 0.5 0.9 0.1 1.1-0.2 0.6-1 1.4-2 2.7-2.9-1.6 4.3-3.5 7.7-5.9 10.5l-1 1.2c0 0.7-0.2 1.6-1 1.7-0.4 0.1-1.2-0.2-1.8 0.4-0.3 0.4 0.7 1.2-0.1 0.6-0.7-0.5-1.4 0-2.2 0.2-0.6 0.2 0.4 0.8 0.6 1.2 0.2 0.4 0.4 0.8 0.3 1.3l-1.1-1.2c-1.3 0.7-2.1 2-3.2 3-0.5 0.4-0.3 1.1-0.3 1.7-0.7 0-1.5-0.2-1.9 0.2-0.3 0.4-0.2 1-0.2 1.6-1-0.1-1.1-1.6-2-1.3-0.9 0.2-1.9 0.3-2.7 0.8 0.6 1.2-1 0.5-0.8 0.7-1.5-0.9-2.8-1.6-4.4-1-3.4-1.1-7.6-0.6-10.7-0.2 0-0.5 0.1-1-0.1-1.1-0.2 0.5-0.8 0.3-0.7 0.3-1.9-1.3-3.8-2.1-5.8-3.2-1.8 0.2-3.5-0.7-4-1.2-1.4-1.3-3-0.6-4.3-0.9-2.8-0.7-3.8-3.6-4.1-5.6-0.2-1-1-1.4-1.3-1.3-1.3-4.2-3.3-8-4.9-11.9-0.4-1-0.3-2-0.3-3.1 0.5 0.2 1 0.1 0.9-0.6-0.5-3.3-1.7-5.8-3-8.2 0.7-3.4 0.8-7.4 2.4-10.4 1.4-2.7 4-4.1 5.8-6.4 0.6-0.8 0.6-1.9 1.2-2.6 2-2 4-4.1 6.2-5.9 1-0.8 2.2 0 3.7-0.3 0.5-1.8 2.5-3.4 4.4-2.9 0.8 0.2 2.4-1.9 2.9-2.1 0.8-0.3 0.4 0.8 0.4 1.5 1.9-1.5 4.5-2.3 6.9-3.2" fill="white" fill-rule="nonzero" stroke="none" stroke-width="1" stroke-linecap="butt" stroke-linejoin="miter" stroke-miterlimit="10" stroke-dasharray="" stroke-dashoffset="0" font-family="none" font-weight="none" font-size="none" text-anchor="none" style="mix-blend-mode: normal"></path></g><g transform="matrix(1,0,0,1,75.93757566578734,90)"><svg viewBox="0 0 168.12484866842533 180" height="180" width="168.12484866842533"><g><svg viewBox="0 0 168.12484866842533 180" height="180" width="168.12484866842533"><g><svg viewBox="0 0 192 205.56152331865584" height="180" width="168.12484866842533"><g transform="matrix(1,0,0,1,0,124.24518496407879)"><svg viewBox="0 0 192 81.31633835457706" height="81.31633835457706" width="192"><g id="SvgjsG5479"><svg viewBox="0 0 192 81.31633835457706" height="81.31633835457706" width="192" id="SvgjsSvg5478"><g><svg viewBox="0 0 192 81.31633835457706" height="81.31633835457706" width="192"><g transform="matrix(1,0,0,1,0,0)"><svg width="192" viewBox="4.76 -35.11 84.27 35.7" height="81.31633835457706" data-palette-color="url(#9beaaca9-0fec-491a-b440-0bfbe4de3b32)"></svg></g></svg></g></svg></g></svg></g><g transform="matrix(1,0,0,1,39.81041019698726,0)"><svg viewBox="0 0 112.37917960602547 112.37917960602549" height="112.37917960602549" width="112.37917960602547"><g><svg xmlns="http://www.w3.org/2000/svg" xmlns:xlink="http://www.w3.org/1999/xlink" version="1.1" x="0" y="0" viewBox="0.5 0.5 46.99999999999999 47" enable-background="new 0 0 48 48" xml:space="preserve" height="112.37917960602549" width="112.37917960602547" class="icon-icon-0" data-fill-palette-color="accent" id="SvgjsSvg5477"></svg></g></svg></g><g></g></svg></g></svg></g></svg></g></svg></g><defs><mask></mask></defs><mask><g id="SvgjsG5476"><svg viewBox="0 0 320 360" height="360" width="320"><g><svg></svg></g><g><svg viewBox="0 0 320 360" height="360" width="320"><g><path transform="translate(-74.99272,-51.79039) scale(4.65793,4.65793)" d="M20.6 59.9l0.8 1-0.4-1.3c-0.1-0.6-0.8 0.1-0.4 0.3M21.5 59.3c0.3 0.5 0.6 1 0.6 1.5 0 0.7 0.6 1 1.1 1.2-0.7-0.8-1.1-3-1.7-2.7M59.9 16.9c1.7 0 3.3-0.2 5.1 0.2 4.4 1.1 8.1 3.3 10.6 6.4l7 11.2c0.3 2.8 0.9 5.9 0.8 9.3 0.7 0 0.6-1 1.4-1.2-0.8 2-1.2 4.5-1.4 7.4-0.5-1.6 0-4 0.1-5.3-0.7 1.1-1.1 0.3-1.1-0.2 0.1-0.8-0.3-0.7-0.6-1-1.1-1-1.8-2.1-2.6-3.8 0.5-1.3 0.6-3.2-1-4.2-0.5-0.3-1.1-0.8-1.4-1.6-0.4-1.1-1.1-2.4-0.9-4.1 0.1-0.5-1.5 1.1-2.4 0.4-3.9-2.7-7.8-5.8-12.5-8.4-2.5 0-4.3-0.9-5.2-2-0.8-1-0.2-2.3 1-2.4 0.7 0 1.5-0.2 2.1 0.2 0.1-0.4 0.5-0.9 1-0.9M50 14.6l0.2 0.1c1 0.2 1.5 1.6 2.6 1.1 0 0.7 0.1 1.4-0.1 1.9-0.3 0.8-1.2 0.8-1.9 0.8-6.7-0.4-10.6 2.4-14.7 4.8-1.1 0.7-2.3 1.2-3.2 2.1-4.3 4-9 7.7-10.1 15.1l-0.9 8.2c-0.1 0.9-1.1 1.8-0.9 2.9l0.7 4.9c-0.7-0.7-1.1 0.2-0.9 0.6 0.1 0.3 0.5 1.3 1.1 0.4 0.8 1.5 1.6 4.4 2.7 5.7 3.4 4 7.8 7.6 11.4 11.2 0.9-0.2 1.6-0.2 1.8-0.8 0.3 0.6-0.3 1.2-0.8 1.3 1.6 1 3.4 1.9 5.8 2.1 3.1 0.2 6 0.7 8.7 1.4 1.4-0.4 2.8-0.6 4.3-0.7 0.5 0 0.8-0.8 1.4-1l0.1-1c0.6 0.9 0.5-0.3 0.1-0.9 0.7 0.6 0.9 1.1 1.2 1.5 0-0.3 0.8-1.4 0.8-0.1l0.2-1.3c0.3-0.2 0.4 1.1 0.7 0.2 0.3-0.9 0.9-0.2 1.5-0.5-0.2 0.4-0.1 1.2 0.6 0.7l0.8-0.7c0.5 1.2 1.3 0.7 1.7 0.5 4.4-2.8 8.8-6.1 13-9.4l-0.1 1.3 0.5-1.6c0.5 0.5 0.9 0.1 1.1-0.2 0.6-1 1.4-2 2.7-2.9-1.6 4.3-3.5 7.7-5.9 10.5l-1 1.2c0 0.7-0.2 1.6-1 1.7-0.4 0.1-1.2-0.2-1.8 0.4-0.3 0.4 0.7 1.2-0.1 0.6-0.7-0.5-1.4 0-2.2 0.2-0.6 0.2 0.4 0.8 0.6 1.2 0.2 0.4 0.4 0.8 0.3 1.3l-1.1-1.2c-1.3 0.7-2.1 2-3.2 3-0.5 0.4-0.3 1.1-0.3 1.7-0.7 0-1.5-0.2-1.9 0.2-0.3 0.4-0.2 1-0.2 1.6-1-0.1-1.1-1.6-2-1.3-0.9 0.2-1.9 0.3-2.7 0.8 0.6 1.2-1 0.5-0.8 0.7-1.5-0.9-2.8-1.6-4.4-1-3.4-1.1-7.6-0.6-10.7-0.2 0-0.5 0.1-1-0.1-1.1-0.2 0.5-0.8 0.3-0.7 0.3-1.9-1.3-3.8-2.1-5.8-3.2-1.8 0.2-3.5-0.7-4-1.2-1.4-1.3-3-0.6-4.3-0.9-2.8-0.7-3.8-3.6-4.1-5.6-0.2-1-1-1.4-1.3-1.3-1.3-4.2-3.3-8-4.9-11.9-0.4-1-0.3-2-0.3-3.1 0.5 0.2 1 0.1 0.9-0.6-0.5-3.3-1.7-5.8-3-8.2 0.7-3.4 0.8-7.4 2.4-10.4 1.4-2.7 4-4.1 5.8-6.4 0.6-0.8 0.6-1.9 1.2-2.6 2-2 4-4.1 6.2-5.9 1-0.8 2.2 0 3.7-0.3 0.5-1.8 2.5-3.4 4.4-2.9 0.8 0.2 2.4-1.9 2.9-2.1 0.8-0.3 0.4 0.8 0.4 1.5 1.9-1.5 4.5-2.3 6.9-3.2" fill="black" fill-rule="nonzero" stroke="none" stroke-width="1" stroke-linecap="butt" stroke-linejoin="miter" stroke-miterlimit="10" stroke-dasharray="" stroke-dashoffset="0" font-family="none" font-weight="none" font-size="none" text-anchor="none" style="mix-blend-mode: normal"></path></g><g transform="matrix(1,0,0,1,75.93757566578734,90)"><svg viewBox="0 0 168.12484866842533 180" height="180" width="168.12484866842533"><g><svg viewBox="0 0 168.12484866842533 180" height="180" width="168.12484866842533"><g><svg viewBox="0 0 192 205.56152331865584" height="180" width="168.12484866842533"><g transform="matrix(1,0,0,1,0,124.24518496407879)"><svg viewBox="0 0 192 81.31633835457706" height="81.31633835457706" width="192"><g id="SvgjsG5475"><svg viewBox="0 0 192 81.31633835457706" height="81.31633835457706" width="192" id="SvgjsSvg5474"><g><svg viewBox="0 0 192 81.31633835457706" height="81.31633835457706" width="192"><g transform="matrix(1,0,0,1,0,0)"><svg width="192" viewBox="4.76 -35.11 84.27 35.7" height="81.31633835457706" data-palette-color="url(#9beaaca9-0fec-491a-b440-0bfbe4de3b32)"><path d="M4.76 0L4.76-35.11 9.35-35.11 9.35-3.76 23.73-3.76 23.73 0 4.76 0ZM47.31-4.71L48.53-1.42Q45.82-0.34 43.44 0.12 41.06 0.59 39.18 0.59L39.18 0.59Q36.3 0.59 34.15-0.33 32-1.25 30.58-2.91 29.15-4.57 28.43-6.87 27.71-9.18 27.71-11.96L27.71-11.96Q27.71-13.67 27.95-15.38 28.2-17.09 28.73-18.64 29.27-20.19 30.14-21.53 31-22.88 32.25-23.85 33.49-24.83 35.15-25.39 36.81-25.95 38.94-25.95L38.94-25.95Q44.38-25.95 47.14-22.55 49.9-19.14 49.9-12.79L49.9-12.79 49.9-11.45 32.03-11.45Q32.03-9.4 32.47-7.82 32.91-6.25 33.82-5.16 34.74-4.08 36.14-3.52 37.55-2.95 39.48-2.95L39.48-2.95Q40.55-2.95 41.61-3.11 42.67-3.27 43.67-3.53 44.68-3.78 45.59-4.1 46.51-4.42 47.31-4.71L47.31-4.71ZM32.15-14.82L45.68-14.82Q45.48-18.77 43.78-20.59 42.09-22.41 38.94-22.41L38.94-22.41Q35.79-22.41 34.14-20.59 32.49-18.77 32.15-14.82L32.15-14.82ZM77.44-0.44L77.44-0.44 73.38 0.46Q72.92-1 72.72-2.37L72.72-2.37Q72.63-3 72.48-4.96L72.48-4.96 71.97-4.96Q70.62-2.49 68.65-1.03L68.65-1.03Q66.47 0.59 64.06 0.59L64.06 0.59Q60.42 0.59 58.52-1.17L58.52-1.17Q56.88-2.66 56.25-5.74L56.25-5.74Q55.83-7.84 55.83-11.99L55.83-11.99 55.83-25.39 60.03-25.39 60.03-10.82Q60.03-7.18 60.74-5.62L60.74-5.62Q61.79-3.3 64.96-3.3L64.96-3.3Q67.21-3.3 69.36-5.44L69.36-5.44Q70.8-6.88 72.43-9.67L72.43-9.67 72.43-25.39 76.63-25.39 76.63-9.72Q76.63-6.47 76.8-4.08L76.8-4.08Q76.9-2.59 77.44-0.44ZM88.22-35.11L88.22-9.86Q88.22-7.86 88.27-6.51 88.32-5.15 88.4-4.13L88.4-4.13Q88.47-3.1 88.63-2.27 88.79-1.44 89.03-0.44L89.03-0.44Q88.01-0.17 86.98 0.06 85.95 0.29 84.93 0.46L84.93 0.46Q84.44-1.12 84.23-2.44 84.03-3.76 84.03-5.03L84.03-5.03 84.03-35.11 88.22-35.11Z" opacity="1" transform="matrix(1,0,0,1,0,0)" fill="black" class="wordmark-text-0" id="SvgjsPath5473"></path></svg></g></svg></g></svg></g></svg></g><g transform="matrix(1,0,0,1,39.81041019698726,0)"><svg viewBox="0 0 112.37917960602547 112.37917960602549" height="112.37917960602549" width="112.37917960602547"><g><svg xmlns="http://www.w3.org/2000/svg" xmlns:xlink="http://www.w3.org/1999/xlink" version="1.1" x="0" y="0" viewBox="0.5 0.5 46.99999999999999 47" enable-background="new 0 0 48 48" xml:space="preserve" height="112.37917960602549" width="112.37917960602547" class="icon-icon-0" data-fill-palette-color="accent" id="SvgjsSvg5472"><g fill="black"><path fill="black" d="M43.2 47.5H4.8c-2.4 0-4.3-1.9-4.3-4.3V4.8c0-2.4 1.9-4.3 4.3-4.3h38.4c2.4 0 4.3 1.9 4.3 4.3v38.4C47.5 45.6 45.6 47.5 43.2 47.5zM4.8 4.4c-0.2 0-0.4 0.2-0.4 0.4v38.4c0 0.2 0.2 0.4 0.4 0.4h38.4c0.2 0 0.4-0.2 0.4-0.4V4.8c0-0.2-0.2-0.4-0.4-0.4H4.8z"></path><g fill="black"><g fill="black"><path fill="black" d="M16.3 31.9c-0.5 0-1-0.2-1.4-0.6L9 25.4c-0.8-0.8-0.8-2 0-2.8l5.9-5.9c0.8-0.8 2-0.8 2.8 0 0.8 0.8 0.8 2 0 2.8L13.2 24l4.5 4.5c0.8 0.8 0.8 2 0 2.8C17.3 31.7 16.8 31.9 16.3 31.9z"></path><path fill="black" d="M31.7 31.9c-0.5 0-1-0.2-1.4-0.6-0.8-0.8-0.8-2 0-2.8l4.5-4.5-4.5-4.5c-0.8-0.8-0.8-2 0-2.8 0.8-0.8 2-0.8 2.8 0l5.9 5.9c0.4 0.4 0.6 0.9 0.6 1.4s-0.2 1-0.6 1.4l-5.9 5.9C32.7 31.7 32.2 31.9 31.7 31.9z"></path></g><path fill="black" d="M20 35c-0.3 0-0.5-0.1-0.8-0.2-1-0.4-1.4-1.6-1-2.6l8-18.2c0.4-1 1.6-1.4 2.6-1 1 0.4 1.4 1.6 1 2.6l-8 18.2C21.5 34.6 20.7 35 20 35z"></path></g></g></svg></g></svg></g><g></g></svg></g></svg></g></svg></g></svg></g><defs><mask></mask></defs></svg><rect width="320" height="360" fill="black" stroke="none" visibility="hidden"></rect></g></mask><mask><g id="SvgjsG5471"><svg viewBox="0 0 320 360" height="360" width="320"><g><svg></svg></g><g><svg viewBox="0 0 320 360" height="360" width="320"><g><path transform="translate(-74.99272,-51.79039) scale(4.65793,4.65793)" d="M20.6 59.9l0.8 1-0.4-1.3c-0.1-0.6-0.8 0.1-0.4 0.3M21.5 59.3c0.3 0.5 0.6 1 0.6 1.5 0 0.7 0.6 1 1.1 1.2-0.7-0.8-1.1-3-1.7-2.7M59.9 16.9c1.7 0 3.3-0.2 5.1 0.2 4.4 1.1 8.1 3.3 10.6 6.4l7 11.2c0.3 2.8 0.9 5.9 0.8 9.3 0.7 0 0.6-1 1.4-1.2-0.8 2-1.2 4.5-1.4 7.4-0.5-1.6 0-4 0.1-5.3-0.7 1.1-1.1 0.3-1.1-0.2 0.1-0.8-0.3-0.7-0.6-1-1.1-1-1.8-2.1-2.6-3.8 0.5-1.3 0.6-3.2-1-4.2-0.5-0.3-1.1-0.8-1.4-1.6-0.4-1.1-1.1-2.4-0.9-4.1 0.1-0.5-1.5 1.1-2.4 0.4-3.9-2.7-7.8-5.8-12.5-8.4-2.5 0-4.3-0.9-5.2-2-0.8-1-0.2-2.3 1-2.4 0.7 0 1.5-0.2 2.1 0.2 0.1-0.4 0.5-0.9 1-0.9M50 14.6l0.2 0.1c1 0.2 1.5 1.6 2.6 1.1 0 0.7 0.1 1.4-0.1 1.9-0.3 0.8-1.2 0.8-1.9 0.8-6.7-0.4-10.6 2.4-14.7 4.8-1.1 0.7-2.3 1.2-3.2 2.1-4.3 4-9 7.7-10.1 15.1l-0.9 8.2c-0.1 0.9-1.1 1.8-0.9 2.9l0.7 4.9c-0.7-0.7-1.1 0.2-0.9 0.6 0.1 0.3 0.5 1.3 1.1 0.4 0.8 1.5 1.6 4.4 2.7 5.7 3.4 4 7.8 7.6 11.4 11.2 0.9-0.2 1.6-0.2 1.8-0.8 0.3 0.6-0.3 1.2-0.8 1.3 1.6 1 3.4 1.9 5.8 2.1 3.1 0.2 6 0.7 8.7 1.4 1.4-0.4 2.8-0.6 4.3-0.7 0.5 0 0.8-0.8 1.4-1l0.1-1c0.6 0.9 0.5-0.3 0.1-0.9 0.7 0.6 0.9 1.1 1.2 1.5 0-0.3 0.8-1.4 0.8-0.1l0.2-1.3c0.3-0.2 0.4 1.1 0.7 0.2 0.3-0.9 0.9-0.2 1.5-0.5-0.2 0.4-0.1 1.2 0.6 0.7l0.8-0.7c0.5 1.2 1.3 0.7 1.7 0.5 4.4-2.8 8.8-6.1 13-9.4l-0.1 1.3 0.5-1.6c0.5 0.5 0.9 0.1 1.1-0.2 0.6-1 1.4-2 2.7-2.9-1.6 4.3-3.5 7.7-5.9 10.5l-1 1.2c0 0.7-0.2 1.6-1 1.7-0.4 0.1-1.2-0.2-1.8 0.4-0.3 0.4 0.7 1.2-0.1 0.6-0.7-0.5-1.4 0-2.2 0.2-0.6 0.2 0.4 0.8 0.6 1.2 0.2 0.4 0.4 0.8 0.3 1.3l-1.1-1.2c-1.3 0.7-2.1 2-3.2 3-0.5 0.4-0.3 1.1-0.3 1.7-0.7 0-1.5-0.2-1.9 0.2-0.3 0.4-0.2 1-0.2 1.6-1-0.1-1.1-1.6-2-1.3-0.9 0.2-1.9 0.3-2.7 0.8 0.6 1.2-1 0.5-0.8 0.7-1.5-0.9-2.8-1.6-4.4-1-3.4-1.1-7.6-0.6-10.7-0.2 0-0.5 0.1-1-0.1-1.1-0.2 0.5-0.8 0.3-0.7 0.3-1.9-1.3-3.8-2.1-5.8-3.2-1.8 0.2-3.5-0.7-4-1.2-1.4-1.3-3-0.6-4.3-0.9-2.8-0.7-3.8-3.6-4.1-5.6-0.2-1-1-1.4-1.3-1.3-1.3-4.2-3.3-8-4.9-11.9-0.4-1-0.3-2-0.3-3.1 0.5 0.2 1 0.1 0.9-0.6-0.5-3.3-1.7-5.8-3-8.2 0.7-3.4 0.8-7.4 2.4-10.4 1.4-2.7 4-4.1 5.8-6.4 0.6-0.8 0.6-1.9 1.2-2.6 2-2 4-4.1 6.2-5.9 1-0.8 2.2 0 3.7-0.3 0.5-1.8 2.5-3.4 4.4-2.9 0.8 0.2 2.4-1.9 2.9-2.1 0.8-0.3 0.4 0.8 0.4 1.5 1.9-1.5 4.5-2.3 6.9-3.2" fill="black" fill-rule="nonzero" stroke="none" stroke-width="1" stroke-linecap="butt" stroke-linejoin="miter" stroke-miterlimit="10" stroke-dasharray="" stroke-dashoffset="0" font-family="none" font-weight="none" font-size="none" text-anchor="none" style="mix-blend-mode: normal"></path></g><g transform="matrix(1,0,0,1,75.93757566578734,90)"><svg viewBox="0 0 168.12484866842533 180" height="180" width="168.12484866842533"><g><svg viewBox="0 0 168.12484866842533 180" height="180" width="168.12484866842533"><g><svg viewBox="0 0 192 205.56152331865584" height="180" width="168.12484866842533"><g transform="matrix(1,0,0,1,0,124.24518496407879)"><svg viewBox="0 0 192 81.31633835457706" height="81.31633835457706" width="192"><g id="SvgjsG5470"><svg viewBox="0 0 192 81.31633835457706" height="81.31633835457706" width="192" id="SvgjsSvg5469"><g><svg viewBox="0 0 192 81.31633835457706" height="81.31633835457706" width="192"><g transform="matrix(1,0,0,1,0,0)"><svg width="192" viewBox="4.76 -35.11 84.27 35.7" height="81.31633835457706" data-palette-color="url(#9beaaca9-0fec-491a-b440-0bfbe4de3b32)"></svg></g></svg></g></svg></g></svg></g><g transform="matrix(1,0,0,1,39.81041019698726,0)"><svg viewBox="0 0 112.37917960602547 112.37917960602549" height="112.37917960602549" width="112.37917960602547"><g><svg xmlns="http://www.w3.org/2000/svg" xmlns:xlink="http://www.w3.org/1999/xlink" version="1.1" x="0" y="0" viewBox="0.5 0.5 46.99999999999999 47" enable-background="new 0 0 48 48" xml:space="preserve" height="112.37917960602549" width="112.37917960602547" class="icon-icon-0" data-fill-palette-color="accent" id="SvgjsSvg5468"><g fill="black"><path fill="black" d="M43.2 47.5H4.8c-2.4 0-4.3-1.9-4.3-4.3V4.8c0-2.4 1.9-4.3 4.3-4.3h38.4c2.4 0 4.3 1.9 4.3 4.3v38.4C47.5 45.6 45.6 47.5 43.2 47.5zM4.8 4.4c-0.2 0-0.4 0.2-0.4 0.4v38.4c0 0.2 0.2 0.4 0.4 0.4h38.4c0.2 0 0.4-0.2 0.4-0.4V4.8c0-0.2-0.2-0.4-0.4-0.4H4.8z"></path><g fill="black"><g fill="black"><path fill="black" d="M16.3 31.9c-0.5 0-1-0.2-1.4-0.6L9 25.4c-0.8-0.8-0.8-2 0-2.8l5.9-5.9c0.8-0.8 2-0.8 2.8 0 0.8 0.8 0.8 2 0 2.8L13.2 24l4.5 4.5c0.8 0.8 0.8 2 0 2.8C17.3 31.7 16.8 31.9 16.3 31.9z"></path><path fill="black" d="M31.7 31.9c-0.5 0-1-0.2-1.4-0.6-0.8-0.8-0.8-2 0-2.8l4.5-4.5-4.5-4.5c-0.8-0.8-0.8-2 0-2.8 0.8-0.8 2-0.8 2.8 0l5.9 5.9c0.4 0.4 0.6 0.9 0.6 1.4s-0.2 1-0.6 1.4l-5.9 5.9C32.7 31.7 32.2 31.9 31.7 31.9z"></path></g><path fill="black" d="M20 35c-0.3 0-0.5-0.1-0.8-0.2-1-0.4-1.4-1.6-1-2.6l8-18.2c0.4-1 1.6-1.4 2.6-1 1 0.4 1.4 1.6 1 2.6l-8 18.2C21.5 34.6 20.7 35 20 35z"></path></g></g></svg></g></svg></g><g></g></svg></g></svg></g></svg></g></svg></g><defs><mask></mask></defs><mask><g id="SvgjsG5467"><svg viewBox="0 0 320 360" height="360" width="320"><g><svg></svg></g><g><svg viewBox="0 0 320 360" height="360" width="320"><g><path transform="translate(-74.99272,-51.79039) scale(4.65793,4.65793)" d="M20.6 59.9l0.8 1-0.4-1.3c-0.1-0.6-0.8 0.1-0.4 0.3M21.5 59.3c0.3 0.5 0.6 1 0.6 1.5 0 0.7 0.6 1 1.1 1.2-0.7-0.8-1.1-3-1.7-2.7M59.9 16.9c1.7 0 3.3-0.2 5.1 0.2 4.4 1.1 8.1 3.3 10.6 6.4l7 11.2c0.3 2.8 0.9 5.9 0.8 9.3 0.7 0 0.6-1 1.4-1.2-0.8 2-1.2 4.5-1.4 7.4-0.5-1.6 0-4 0.1-5.3-0.7 1.1-1.1 0.3-1.1-0.2 0.1-0.8-0.3-0.7-0.6-1-1.1-1-1.8-2.1-2.6-3.8 0.5-1.3 0.6-3.2-1-4.2-0.5-0.3-1.1-0.8-1.4-1.6-0.4-1.1-1.1-2.4-0.9-4.1 0.1-0.5-1.5 1.1-2.4 0.4-3.9-2.7-7.8-5.8-12.5-8.4-2.5 0-4.3-0.9-5.2-2-0.8-1-0.2-2.3 1-2.4 0.7 0 1.5-0.2 2.1 0.2 0.1-0.4 0.5-0.9 1-0.9M50 14.6l0.2 0.1c1 0.2 1.5 1.6 2.6 1.1 0 0.7 0.1 1.4-0.1 1.9-0.3 0.8-1.2 0.8-1.9 0.8-6.7-0.4-10.6 2.4-14.7 4.8-1.1 0.7-2.3 1.2-3.2 2.1-4.3 4-9 7.7-10.1 15.1l-0.9 8.2c-0.1 0.9-1.1 1.8-0.9 2.9l0.7 4.9c-0.7-0.7-1.1 0.2-0.9 0.6 0.1 0.3 0.5 1.3 1.1 0.4 0.8 1.5 1.6 4.4 2.7 5.7 3.4 4 7.8 7.6 11.4 11.2 0.9-0.2 1.6-0.2 1.8-0.8 0.3 0.6-0.3 1.2-0.8 1.3 1.6 1 3.4 1.9 5.8 2.1 3.1 0.2 6 0.7 8.7 1.4 1.4-0.4 2.8-0.6 4.3-0.7 0.5 0 0.8-0.8 1.4-1l0.1-1c0.6 0.9 0.5-0.3 0.1-0.9 0.7 0.6 0.9 1.1 1.2 1.5 0-0.3 0.8-1.4 0.8-0.1l0.2-1.3c0.3-0.2 0.4 1.1 0.7 0.2 0.3-0.9 0.9-0.2 1.5-0.5-0.2 0.4-0.1 1.2 0.6 0.7l0.8-0.7c0.5 1.2 1.3 0.7 1.7 0.5 4.4-2.8 8.8-6.1 13-9.4l-0.1 1.3 0.5-1.6c0.5 0.5 0.9 0.1 1.1-0.2 0.6-1 1.4-2 2.7-2.9-1.6 4.3-3.5 7.7-5.9 10.5l-1 1.2c0 0.7-0.2 1.6-1 1.7-0.4 0.1-1.2-0.2-1.8 0.4-0.3 0.4 0.7 1.2-0.1 0.6-0.7-0.5-1.4 0-2.2 0.2-0.6 0.2 0.4 0.8 0.6 1.2 0.2 0.4 0.4 0.8 0.3 1.3l-1.1-1.2c-1.3 0.7-2.1 2-3.2 3-0.5 0.4-0.3 1.1-0.3 1.7-0.7 0-1.5-0.2-1.9 0.2-0.3 0.4-0.2 1-0.2 1.6-1-0.1-1.1-1.6-2-1.3-0.9 0.2-1.9 0.3-2.7 0.8 0.6 1.2-1 0.5-0.8 0.7-1.5-0.9-2.8-1.6-4.4-1-3.4-1.1-7.6-0.6-10.7-0.2 0-0.5 0.1-1-0.1-1.1-0.2 0.5-0.8 0.3-0.7 0.3-1.9-1.3-3.8-2.1-5.8-3.2-1.8 0.2-3.5-0.7-4-1.2-1.4-1.3-3-0.6-4.3-0.9-2.8-0.7-3.8-3.6-4.1-5.6-0.2-1-1-1.4-1.3-1.3-1.3-4.2-3.3-8-4.9-11.9-0.4-1-0.3-2-0.3-3.1 0.5 0.2 1 0.1 0.9-0.6-0.5-3.3-1.7-5.8-3-8.2 0.7-3.4 0.8-7.4 2.4-10.4 1.4-2.7 4-4.1 5.8-6.4 0.6-0.8 0.6-1.9 1.2-2.6 2-2 4-4.1 6.2-5.9 1-0.8 2.2 0 3.7-0.3 0.5-1.8 2.5-3.4 4.4-2.9 0.8 0.2 2.4-1.9 2.9-2.1 0.8-0.3 0.4 0.8 0.4 1.5 1.9-1.5 4.5-2.3 6.9-3.2" fill="black" fill-rule="nonzero" stroke="none" stroke-width="1" stroke-linecap="butt" stroke-linejoin="miter" stroke-miterlimit="10" stroke-dasharray="" stroke-dashoffset="0" font-family="none" font-weight="none" font-size="none" text-anchor="none" style="mix-blend-mode: normal"></path></g><g transform="matrix(1,0,0,1,75.93757566578734,90)"><svg viewBox="0 0 168.12484866842533 180" height="180" width="168.12484866842533"><g><svg viewBox="0 0 168.12484866842533 180" height="180" width="168.12484866842533"><g><svg viewBox="0 0 192 205.56152331865584" height="180" width="168.12484866842533"><g transform="matrix(1,0,0,1,0,124.24518496407879)"><svg viewBox="0 0 192 81.31633835457706" height="81.31633835457706" width="192"><g id="SvgjsG5466"><svg viewBox="0 0 192 81.31633835457706" height="81.31633835457706" width="192" id="SvgjsSvg5465"><g><svg viewBox="0 0 192 81.31633835457706" height="81.31633835457706" width="192"><g transform="matrix(1,0,0,1,0,0)"><svg width="192" viewBox="4.76 -35.11 84.27 35.7" height="81.31633835457706" data-palette-color="url(#9beaaca9-0fec-491a-b440-0bfbe4de3b32)"><path d="M4.76 0L4.76-35.11 9.35-35.11 9.35-3.76 23.73-3.76 23.73 0 4.76 0ZM47.31-4.71L48.53-1.42Q45.82-0.34 43.44 0.12 41.06 0.59 39.18 0.59L39.18 0.59Q36.3 0.59 34.15-0.33 32-1.25 30.58-2.91 29.15-4.57 28.43-6.87 27.71-9.18 27.71-11.96L27.71-11.96Q27.71-13.67 27.95-15.38 28.2-17.09 28.73-18.64 29.27-20.19 30.14-21.53 31-22.88 32.25-23.85 33.49-24.83 35.15-25.39 36.81-25.95 38.94-25.95L38.94-25.95Q44.38-25.95 47.14-22.55 49.9-19.14 49.9-12.79L49.9-12.79 49.9-11.45 32.03-11.45Q32.03-9.4 32.47-7.82 32.91-6.25 33.82-5.16 34.74-4.08 36.14-3.52 37.55-2.95 39.48-2.95L39.48-2.95Q40.55-2.95 41.61-3.11 42.67-3.27 43.67-3.53 44.68-3.78 45.59-4.1 46.51-4.42 47.31-4.71L47.31-4.71ZM32.15-14.82L45.68-14.82Q45.48-18.77 43.78-20.59 42.09-22.41 38.94-22.41L38.94-22.41Q35.79-22.41 34.14-20.59 32.49-18.77 32.15-14.82L32.15-14.82ZM77.44-0.44L77.44-0.44 73.38 0.46Q72.92-1 72.72-2.37L72.72-2.37Q72.63-3 72.48-4.96L72.48-4.96 71.97-4.96Q70.62-2.49 68.65-1.03L68.65-1.03Q66.47 0.59 64.06 0.59L64.06 0.59Q60.42 0.59 58.52-1.17L58.52-1.17Q56.88-2.66 56.25-5.74L56.25-5.74Q55.83-7.84 55.83-11.99L55.83-11.99 55.83-25.39 60.03-25.39 60.03-10.82Q60.03-7.18 60.74-5.62L60.74-5.62Q61.79-3.3 64.96-3.3L64.96-3.3Q67.21-3.3 69.36-5.44L69.36-5.44Q70.8-6.88 72.43-9.67L72.43-9.67 72.43-25.39 76.63-25.39 76.63-9.72Q76.63-6.47 76.8-4.08L76.8-4.08Q76.9-2.59 77.44-0.44ZM88.22-35.11L88.22-9.86Q88.22-7.86 88.27-6.51 88.32-5.15 88.4-4.13L88.4-4.13Q88.47-3.1 88.63-2.27 88.79-1.44 89.03-0.44L89.03-0.44Q88.01-0.17 86.98 0.06 85.95 0.29 84.93 0.46L84.93 0.46Q84.44-1.12 84.23-2.44 84.03-3.76 84.03-5.03L84.03-5.03 84.03-35.11 88.22-35.11Z" opacity="1" transform="matrix(1,0,0,1,0,0)" fill="black" class="wordmark-text-0" id="SvgjsPath5464"></path></svg></g></svg></g></svg></g></svg></g><g transform="matrix(1,0,0,1,39.81041019698726,0)"><svg viewBox="0 0 112.37917960602547 112.37917960602549" height="112.37917960602549" width="112.37917960602547"><g><svg xmlns="http://www.w3.org/2000/svg" xmlns:xlink="http://www.w3.org/1999/xlink" version="1.1" x="0" y="0" viewBox="0.5 0.5 46.99999999999999 47" enable-background="new 0 0 48 48" xml:space="preserve" height="112.37917960602549" width="112.37917960602547" class="icon-icon-0" data-fill-palette-color="accent" id="SvgjsSvg5463"><g fill="black"><path fill="black" d="M43.2 47.5H4.8c-2.4 0-4.3-1.9-4.3-4.3V4.8c0-2.4 1.9-4.3 4.3-4.3h38.4c2.4 0 4.3 1.9 4.3 4.3v38.4C47.5 45.6 45.6 47.5 43.2 47.5zM4.8 4.4c-0.2 0-0.4 0.2-0.4 0.4v38.4c0 0.2 0.2 0.4 0.4 0.4h38.4c0.2 0 0.4-0.2 0.4-0.4V4.8c0-0.2-0.2-0.4-0.4-0.4H4.8z"></path><g fill="black"><g fill="black"><path fill="black" d="M16.3 31.9c-0.5 0-1-0.2-1.4-0.6L9 25.4c-0.8-0.8-0.8-2 0-2.8l5.9-5.9c0.8-0.8 2-0.8 2.8 0 0.8 0.8 0.8 2 0 2.8L13.2 24l4.5 4.5c0.8 0.8 0.8 2 0 2.8C17.3 31.7 16.8 31.9 16.3 31.9z"></path><path fill="black" d="M31.7 31.9c-0.5 0-1-0.2-1.4-0.6-0.8-0.8-0.8-2 0-2.8l4.5-4.5-4.5-4.5c-0.8-0.8-0.8-2 0-2.8 0.8-0.8 2-0.8 2.8 0l5.9 5.9c0.4 0.4 0.6 0.9 0.6 1.4s-0.2 1-0.6 1.4l-5.9 5.9C32.7 31.7 32.2 31.9 31.7 31.9z"></path></g><path fill="black" d="M20 35c-0.3 0-0.5-0.1-0.8-0.2-1-0.4-1.4-1.6-1-2.6l8-18.2c0.4-1 1.6-1.4 2.6-1 1 0.4 1.4 1.6 1 2.6l-8 18.2C21.5 34.6 20.7 35 20 35z"></path></g></g></svg></g></svg></g><g></g></svg></g></svg></g></svg></g></svg></g><defs><mask></mask></defs></svg><rect width="320" height="360" fill="black" stroke="none" visibility="hidden"></rect></g></mask></svg><rect width="320" height="360" fill="black" stroke="none" visibility="hidden"></rect></g></mask></svg><rect width="320" height="360" fill="black" stroke="none" visibility="hidden"></rect></g></mask><linearGradient x1="0" x2="1" y1="0.5" y2="0.5" id="4e780244-f878-4cd3-bd10-e9127e7aa7f6"><stop stop-color="#f00b51" offset="0"></stop><stop stop-color="#730062" offset="1"></stop></linearGradient></svg><rect width="320" height="360" fill="none" stroke="none" visibility="hidden"></rect></g></svg></g></svg>